<svg width="30" height="30" viewBox="0 0 30 30" fill="none" xmlns="http://www.w3.org/2000/svg">
<circle cx="15" cy="15" r="15" fill="#F0F0F0"/>
<path d="M18.2727 14.1429C19.6309 14.1429 20.7191 12.9943 20.7191 11.5714C20.7191 10.1486 19.6309 9 18.2727 9C16.9145 9 15.8182 10.1486 15.8182 11.5714C15.8182 12.9943 16.9145 14.1429 18.2727 14.1429ZM11.7273 14.1429C13.0855 14.1429 14.1736 12.9943 14.1736 11.5714C14.1736 10.1486 13.0855 9 11.7273 9C10.3691 9 9.27273 10.1486 9.27273 11.5714C9.27273 12.9943 10.3691 14.1429 11.7273 14.1429ZM11.7273 15.8571C9.82091 15.8571 6 16.86 6 18.8571V21H17.4545V18.8571C17.4545 16.86 13.6336 15.8571 11.7273 15.8571ZM18.2727 15.8571C18.0355 15.8571 17.7655 15.8743 17.4791 15.9C18.4282 16.62 19.0909 17.5886 19.0909 18.8571V21H24V18.8571C24 16.86 20.1791 15.8571 18.2727 15.8571Z" fill="#243443"/>
</svg>
