<?xml version="1.0" standalone="no"?>
<!DOCTYPE svg PUBLIC "-//W3C//DTD SVG 20010904//EN"
 "http://www.w3.org/TR/2001/REC-SVG-20010904/DTD/svg10.dtd">
<svg version="1.0" xmlns="http://www.w3.org/2000/svg"
 width="1024.000000pt" height="1024.000000pt" viewBox="0 0 1024.000000 1024.000000"
 preserveAspectRatio="xMidYMid meet">

<g transform="translate(0.000000,1024.000000) scale(0.100000,-0.100000)"
fill="#000000" stroke="none">
<path d="M3465 6475 c-72 -16 -129 -18 -173 -6 -36 11 -45 -6 -14 -26 45 -28
52 -67 52 -310 0 -229 0 -229 -25 -263 -14 -19 -25 -38 -25 -43 0 -4 35 -5 78
-2 43 4 97 2 122 -4 50 -11 60 -8 42 17 -44 63 -45 69 -49 313 l-4 235 35 43
c35 41 44 62 29 60 -5 0 -35 -7 -68 -14z"/>
<path d="M5506 6409 l39 -40 -3 -237 c-2 -210 -4 -240 -20 -262 -10 -14 -22
-31 -26 -37 -5 -10 40 -12 210 -8 119 2 218 6 220 8 7 7 42 182 37 187 -3 3
-8 -1 -11 -8 -8 -24 -64 -83 -93 -98 -29 -14 -106 -19 -146 -8 -22 6 -23 11
-23 105 0 96 1 99 23 100 62 3 83 -4 115 -39 l33 -37 -3 102 c-3 78 -8 107
-20 119 -14 14 -16 13 -22 -21 -8 -40 -38 -58 -90 -53 l-31 3 0 90 0 90 57 3
c68 4 105 -13 145 -63 36 -45 55 -47 42 -3 -5 18 -9 55 -9 83 l0 50 -192 0
c-106 0 -211 3 -232 7 l-39 7 39 -40z"/>
<path d="M6742 6440 c-75 -18 -145 -87 -158 -157 -14 -72 64 -168 188 -233 82
-43 98 -57 98 -91 0 -29 -39 -61 -92 -74 -40 -10 -107 32 -137 87 -24 42 -38
58 -53 58 -5 0 -8 -44 -8 -98 l0 -97 48 -1 c26 -1 81 -4 122 -9 67 -7 80 -5
124 15 38 18 58 37 88 84 36 55 39 66 36 114 -5 60 -27 89 -98 129 -93 52
-179 115 -186 135 -9 29 26 72 61 76 45 6 99 -25 130 -74 15 -24 32 -41 36
-38 5 3 9 41 9 86 0 69 -2 79 -16 74 -9 -3 -36 1 -60 9 -48 16 -80 17 -132 5z"/>
<path d="M3671 6432 l-94 -3 34 -35 34 -35 3 -224 3 -223 -35 -40 c-20 -22
-36 -42 -36 -46 0 -3 43 -5 95 -3 92 2 94 2 80 22 -9 11 -22 29 -30 41 -18 24
-34 301 -19 327 8 14 26 -17 84 -143 80 -174 116 -240 131 -240 11 0 69 120
69 142 0 7 26 66 58 132 l57 118 7 -43 c3 -24 7 -100 7 -168 1 -109 -1 -128
-20 -158 -12 -19 -20 -36 -17 -38 2 -2 24 1 48 6 25 6 73 8 107 5 73 -8 89 5
47 39 l-29 23 -2 236 c-2 230 -1 237 19 256 12 11 25 20 30 20 4 0 8 8 8 18 0
15 -11 17 -107 16 l-107 -1 -47 -119 c-77 -194 -92 -225 -103 -221 -13 4 -37
51 -108 207 -28 63 -56 120 -62 125 -6 6 -52 9 -105 7z"/>
<path d="M4574 6429 c-9 -15 -82 -234 -89 -269 -4 -19 -25 -67 -46 -105 -21
-39 -45 -88 -52 -110 -8 -22 -26 -58 -41 -79 -14 -22 -24 -41 -22 -44 7 -7
176 -8 176 -1 0 3 -11 16 -25 29 -30 28 -31 49 -6 99 29 56 41 62 118 59 l68
-3 32 -50 c39 -58 40 -68 13 -106 l-21 -28 118 6 c65 3 119 7 121 8 2 2 -10
22 -26 46 -16 24 -39 71 -52 104 -13 33 -63 141 -112 240 -48 98 -88 186 -88
195 0 12 -9 17 -30 17 -17 0 -33 -4 -36 -8z m56 -331 c0 -15 -9 -18 -52 -18
-29 0 -58 4 -64 8 -7 5 0 31 24 80 l35 73 28 -63 c16 -35 29 -71 29 -80z"/>
<path d="M5115 6427 c-121 -41 -183 -100 -216 -207 -27 -91 -22 -139 25 -235
38 -76 93 -133 149 -154 36 -14 97 -14 211 0 122 16 126 20 126 155 l0 103 35
27 c43 33 45 46 4 32 -18 -6 -70 -9 -125 -6 -85 5 -94 3 -94 -12 0 -10 9 -24
20 -31 17 -11 22 -29 27 -85 8 -96 -3 -114 -65 -114 -102 0 -167 87 -178 241
-4 48 -4 98 0 112 14 56 102 127 157 127 48 0 104 -26 155 -73 l54 -49 0 88
c-1 75 -3 86 -14 72 -11 -16 -16 -16 -57 -1 -60 21 -165 26 -214 10z"/>
<path d="M6260 6432 c0 -2 14 -17 30 -34 l30 -30 0 -242 0 -243 -25 -23 c-38
-36 -33 -49 18 -39 23 4 79 8 125 9 l83 0 -28 37 -28 36 -3 234 -3 233 25 24
c15 13 26 27 26 32 0 5 -56 9 -125 9 -69 0 -125 -1 -125 -3z"/>
<path d="M5348 5813 c-8 -10 -22 -30 -31 -46 -10 -15 -36 -41 -59 -57 -49 -36
-38 -40 13 -6 36 25 117 126 101 126 -5 0 -16 -8 -24 -17z"/>
<path d="M6630 5459 c-14 -6 -71 -9 -127 -7 l-102 3 25 -26 c38 -40 44 -85 38
-309 -4 -155 -9 -211 -20 -227 -8 -13 -13 -23 -12 -24 30 -5 218 -4 218 2 0 4
-11 25 -25 45 -25 37 -25 38 -25 259 l0 222 30 26 c17 15 30 32 30 37 0 6 -1
10 -2 9 -2 0 -14 -5 -28 -10z"/>
<path d="M1816 5451 c-4 -6 5 -22 21 -35 25 -21 28 -31 31 -97 2 -41 -1 -145
-5 -231 -8 -139 -12 -161 -31 -187 -12 -17 -22 -33 -22 -37 0 -3 78 -4 173 -2
248 7 273 19 354 166 43 81 45 88 41 146 -9 112 -72 211 -163 259 -35 18 -62
21 -216 25 -124 3 -178 1 -183 -7z m321 -79 c40 -28 70 -94 84 -183 18 -115
-5 -181 -79 -233 -40 -27 -102 -35 -132 -16 -18 11 -26 216 -15 368 l7 94 52
-4 c32 -3 65 -13 83 -26z"/>
<path d="M3093 5452 c-73 -1 -133 -5 -133 -8 0 -3 13 -16 29 -30 16 -13 33
-39 36 -57 11 -49 155 -449 171 -474 21 -34 39 -28 58 20 44 106 123 248 142
254 7 2 14 -14 18 -38 4 -22 30 -92 59 -154 l52 -114 21 27 c12 15 29 51 38
82 10 30 28 81 42 113 16 35 31 99 39 162 15 115 28 141 78 168 38 21 68 13
86 -21 20 -39 29 -242 16 -365 -9 -87 -15 -105 -41 -121 -47 -31 -29 -38 89
-32 61 3 114 6 116 6 3 0 -7 12 -22 28 l-26 27 14 80 c8 44 15 98 15 120 0 22
4 46 8 53 12 18 37 -13 50 -61 14 -51 67 -132 103 -158 16 -11 29 -26 29 -32
0 -16 79 -67 104 -67 18 0 19 5 13 120 -5 86 -3 140 7 194 8 41 16 116 17 167
l2 93 -34 12 c-19 7 -55 13 -81 13 -46 1 -47 0 -38 -24 5 -13 20 -41 34 -62
15 -24 26 -60 30 -98 4 -33 9 -72 12 -87 5 -25 3 -26 -29 -24 -30 3 -53 22
-168 139 -115 116 -140 138 -179 148 -34 8 -56 8 -90 0 -29 -7 -71 -8 -117 -3
-40 5 -73 5 -73 1 0 -4 14 -19 31 -32 l32 -25 -23 -88 c-12 -49 -28 -120 -35
-159 l-13 -70 -35 76 c-37 77 -87 220 -87 245 0 8 16 22 35 31 44 21 37 32
-15 23 -23 -4 -77 -3 -120 3 -44 6 -83 7 -87 4 -3 -4 3 -17 15 -30 40 -42 50
-158 22 -243 -36 -109 -42 -109 -78 -2 -66 192 -68 219 -20 252 12 9 20 17 17
18 -2 2 -64 2 -136 0z"/>
<path d="M4410 5450 c0 -5 -7 -10 -15 -10 -14 0 -14 -2 0 -23 12 -19 15 -69
17 -273 1 -137 -1 -260 -6 -273 -8 -23 -7 -24 24 -17 18 3 104 6 191 6 l159 0
1 78 c1 42 4 88 9 102 7 23 8 24 15 5 23 -65 30 -78 47 -101 24 -29 119 -80
171 -89 96 -18 186 26 261 127 153 206 13 490 -230 465 -64 -7 -154 -48 -206
-95 -52 -47 -73 -118 -64 -218 l7 -72 -42 -49 c-52 -60 -54 -61 -122 -69 -48
-6 -56 -4 -66 13 -7 13 -9 96 -8 231 3 177 6 214 19 229 15 17 13 18 -52 20
-37 1 -77 6 -89 12 -14 8 -21 8 -21 1z m714 -74 c20 -8 39 -27 49 -48 38 -80
44 -276 11 -341 -19 -36 -70 -67 -110 -67 -42 0 -93 37 -118 85 -16 31 -22 63
-24 143 -2 57 -1 119 2 138 16 85 103 126 190 90z"/>
<path d="M5840 5454 c0 -3 16 -24 35 -45 29 -32 35 -47 36 -87 1 -26 1 -50 0
-54 0 -3 -3 -57 -6 -120 -11 -207 -18 -258 -36 -258 -5 0 -9 -6 -9 -12 0 -10
35 -14 131 -16 213 -5 272 24 348 171 50 97 58 146 37 218 -28 93 -55 130
-121 164 -58 30 -60 30 -224 30 -91 0 -172 4 -178 8 -7 5 -13 5 -13 1z m345
-104 c46 -44 58 -85 58 -194 0 -144 -37 -207 -131 -222 -35 -6 -42 -3 -57 19
-14 21 -16 54 -14 224 0 109 4 202 6 207 3 4 28 6 55 4 38 -4 57 -12 83 -38z"/>
<path d="M7050 5446 c0 -4 14 -24 31 -44 31 -35 32 -36 25 -116 -3 -45 -6 -93
-6 -108 0 -48 -23 -31 -88 65 -35 50 -85 117 -112 147 l-48 55 -86 4 c-47 1
-86 -1 -86 -5 0 -5 12 -18 27 -30 25 -19 28 -30 34 -105 4 -46 8 -149 8 -229
l1 -144 -31 -32 -30 -31 88 -6 c48 -3 90 -4 91 -2 2 2 -12 24 -30 49 l-35 45
-6 147 c-4 81 -5 150 -3 152 9 8 87 -80 137 -155 28 -43 73 -100 98 -128 26
-27 54 -60 62 -72 15 -21 97 -59 107 -49 2 3 -1 19 -7 37 -7 20 -11 118 -11
260 l0 228 30 34 c17 19 30 36 30 38 0 2 -43 4 -95 4 -52 0 -95 -4 -95 -9z"/>
<path d="M7485 5446 c-104 -33 -179 -96 -217 -184 -41 -91 -8 -245 69 -324 60
-62 120 -81 241 -79 64 1 102 -2 102 -9 0 -5 -4 -10 -9 -10 -6 0 -6 -12 -1
-32 7 -21 6 -36 -1 -45 -9 -10 -8 -13 2 -13 24 0 35 13 67 77 29 59 30 65 25
161 -5 90 -4 104 17 146 13 25 21 48 18 51 -3 3 -22 -2 -44 -11 -29 -12 -55
-15 -106 -9 -76 7 -82 1 -48 -50 15 -22 20 -47 20 -96 0 -75 -9 -89 -60 -89
-54 0 -115 56 -135 122 -17 59 -20 230 -5 275 14 39 61 65 118 65 61 0 110
-29 146 -87 16 -25 34 -44 40 -42 13 4 28 168 16 180 -4 5 -17 3 -27 -4 -17
-10 -33 -9 -86 4 -77 20 -88 20 -142 3z"/>
<path d="M2594 5430 c-79 -31 -127 -79 -159 -157 -54 -132 -30 -228 85 -343
139 -141 326 -92 430 111 64 125 2 316 -124 381 -60 31 -165 34 -232 8z m134
-44 c64 -33 110 -183 93 -301 -12 -81 -24 -107 -61 -138 -63 -53 -118 -28
-166 75 -27 59 -29 71 -29 184 0 134 5 147 68 178 40 19 61 20 95 2z"/>
<path d="M5557 5408 c-45 -60 -102 -195 -179 -422 -13 -40 -35 -81 -53 -99
l-30 -30 32 6 c18 4 53 0 80 -8 26 -8 51 -11 55 -7 5 5 -6 27 -23 51 -30 40
-31 45 -20 82 15 49 34 59 115 59 l66 0 16 -37 c9 -21 17 -61 18 -89 l1 -52
85 -4 c90 -5 130 3 130 25 0 8 -11 19 -24 27 -22 11 -66 91 -66 119 0 6 -20
60 -45 121 -25 61 -45 115 -45 121 0 15 -74 168 -82 169 -4 0 -18 -15 -31 -32z
m13 -239 c7 -28 10 -52 7 -55 -7 -7 -120 -24 -126 -19 -6 7 24 71 57 118 23
35 27 37 38 22 7 -9 18 -39 24 -66z"/>
<path d="M7850 4990 c-32 -32 -24 -76 23 -127 26 -29 48 -29 75 0 30 32 28 78
-4 116 -30 36 -65 40 -94 11z"/>
<path d="M8041 4984 c-32 -40 -27 -77 14 -113 20 -17 40 -31 44 -31 17 0 71
71 71 94 0 13 -12 35 -26 50 -35 34 -76 34 -103 0z"/>
<path d="M8326 4989 c-14 -11 -26 -16 -26 -10 0 12 -49 15 -66 3 -6 -4 -16
-17 -23 -30 -10 -19 -9 -28 6 -55 23 -38 47 -45 74 -21 18 16 20 16 37 1 29
-26 74 -21 105 11 23 24 26 33 18 54 -11 30 -57 68 -81 68 -10 0 -29 -9 -44
-21z"/>
<path d="M4885 4267 c-8 -20 -15 -41 -15 -47 0 -6 -11 -30 -24 -53 -14 -23
-32 -59 -40 -79 -15 -35 -15 -38 3 -48 26 -13 49 -3 53 23 4 29 67 44 86 20 6
-9 12 -25 12 -35 0 -10 8 -19 18 -19 22 -2 56 2 60 6 2 2 -17 49 -42 104 -25
55 -46 104 -46 109 0 5 -11 19 -25 32 l-25 23 -15 -36z m35 -119 c0 -11 -8
-18 -20 -18 -23 0 -23 0 -9 37 8 22 12 24 19 13 6 -8 10 -23 10 -32z"/>
<path d="M5236 4287 c3 -10 9 -15 12 -12 3 3 0 11 -7 18 -10 9 -11 8 -5 -6z"/>
<path d="M4620 4272 c-40 -20 -80 -74 -80 -109 0 -67 63 -133 127 -133 44 0
113 77 113 127 0 42 -21 85 -56 112 -33 26 -58 26 -104 3z m79 -68 c25 -32 27
-66 5 -99 -31 -47 -79 -26 -103 44 -10 31 -9 37 11 58 28 30 62 29 87 -3z"/>
<path d="M4376 4248 c3 -18 1 -75 -3 -125 l-9 -93 78 0 c71 0 78 2 78 20 0 23
-28 40 -66 40 l-27 0 5 83 c3 45 3 88 1 95 -3 6 -18 12 -33 12 -27 0 -28 -2
-24 -32z"/>
<path d="M5061 4250 c6 -16 9 -73 7 -125 l-3 -95 53 0 c104 0 152 44 152 140
0 44 -5 56 -29 81 -28 27 -34 29 -110 29 l-80 0 10 -30z m134 -40 c7 -6 15
-25 19 -42 9 -44 -14 -75 -58 -80 l-36 -4 0 74 0 75 32 -7 c17 -3 37 -11 43
-16z"/>
<path d="M5340 4181 c0 -55 -5 -112 -10 -127 -6 -15 -9 -28 -7 -30 1 -2 25 0
52 4 l49 7 2 75 c1 57 -1 65 -6 35 -6 -33 -7 -26 -7 35 -1 41 1 66 4 55 9 -38
20 -36 14 2 -6 36 -8 38 -49 41 l-42 3 0 -100z"/>
<path d="M5555 4271 c-44 -19 -92 -104 -74 -132 5 -7 9 -24 9 -35 0 -32 30
-63 75 -78 35 -13 43 -12 69 2 47 28 66 60 66 113 0 60 -13 94 -43 113 -30 20
-77 28 -102 17z m80 -76 c14 -13 25 -33 25 -43 0 -24 -47 -72 -71 -72 -49 0
-70 94 -27 124 31 22 45 20 73 -9z"/>
<path d="M5810 4101 c0 -4 -11 -6 -24 -4 -30 6 -55 -30 -36 -51 12 -16 109
-18 128 -3 17 13 15 20 -8 45 -20 22 -60 30 -60 13z"/>
<path d="M5942 4098 c-20 -20 -13 -47 16 -61 32 -17 48 -13 63 15 21 39 -47
78 -79 46z"/>
<path d="M6093 4103 c-22 -8 -15 -51 11 -68 31 -21 66 -5 66 28 0 39 -35 57
-77 40z"/>
</g>
</svg>
