<svg width="50" height="50" viewBox="0 0 50 50" fill="none" xmlns="http://www.w3.org/2000/svg">
    <rect width="50" height="50" fill="#F0F0F0" />
    <path
        d="M25 26.3502C28.3539 26.3502 31.0749 23.6291 31.0749 20.2752C31.0749 16.9213 28.3539 14.2002 25 14.2002C21.646 14.2002 18.925 16.9213 18.925 20.2752C18.925 23.6291 21.646 26.3502 25 26.3502ZM30.4 27.7002H28.0754C27.1389 28.1305 26.0968 28.3752 25 28.3752C23.9031 28.3752 22.8653 28.1305 21.9245 27.7002H19.6C16.6173 27.7002 14.2 30.1175 14.2 33.1002V33.7752C14.2 34.8932 15.107 35.8002 16.225 35.8002H33.7749C34.8929 35.8002 35.7999 34.8932 35.7999 33.7752V33.1002C35.7999 30.1175 33.3826 27.7002 30.4 27.7002Z"
        fill="#AAB0B7" />
</svg>